<svg width="30" height="26" viewBox="0 0 30 26" fill="none" xmlns="http://www.w3.org/2000/svg">
<path fill-rule="evenodd" clip-rule="evenodd" d="M15.6667 19.5H17.9167C23.67 19.5 28.3333 15.4584 28.3333 10.4722C28.3333 5.486 23.67 1.44444 17.9167 1.44444H12.0833C6.33 1.44444 1.66667 5.486 1.66667 10.4722C1.66667 16.2933 5.49667 19.7744 9.525 21.8732C11.5467 22.9262 13.5833 23.6066 15.1217 24.0233C15.3117 24.0746 15.4942 24.1222 15.6667 24.1656V19.5ZM17.3333 26C17.3333 26 16.6967 25.9068 15.6667 25.6656C11.325 24.6458 0 20.9806 0 10.4722C0 4.68867 5.41 0 12.0833 0H17.9167C24.59 0 30 4.68867 30 10.4722C30 16.2558 24.59 20.9444 17.9167 20.9444H17.3333V26Z" fill="black"/>
<path fill-rule="evenodd" clip-rule="evenodd" d="M18.076 4.68146C18.9343 5.17546 19.581 5.9764 19.581 7.05034C19.581 8.19001 19.051 9.02779 18.1918 9.54057C17.8527 9.73959 17.4783 9.88937 17.0835 9.98401V11.0905C17.0835 11.3778 16.9518 11.6533 16.7174 11.8565C16.483 12.0597 16.165 12.1738 15.8335 12.1738C15.502 12.1738 15.184 12.0597 14.9496 11.8565C14.7152 11.6533 14.5835 11.3778 14.5835 11.0905V9.0704C14.5834 8.79554 14.7039 8.53094 14.9205 8.33019C15.1372 8.12944 15.4337 8.00756 15.7502 7.98923C16.2118 7.96251 16.5618 7.88307 16.7727 7.75668C16.8582 7.70762 16.9271 7.63985 16.9727 7.56023C17.0227 7.47357 17.081 7.31901 17.081 7.04962C17.081 6.82357 16.9793 6.65096 16.6918 6.48484C16.3652 6.29707 15.8402 6.1584 15.2093 6.14107C14.586 6.12373 13.9802 6.22918 13.5343 6.41623C13.0877 6.60401 12.9235 6.8149 12.8777 6.97018C12.8369 7.10799 12.7651 7.23748 12.6666 7.35126C12.568 7.46504 12.4445 7.56088 12.3032 7.63331C12.1619 7.70574 12.0056 7.75334 11.843 7.77339C11.6805 7.79344 11.515 7.78556 11.356 7.75018C11.197 7.7148 11.0476 7.65263 10.9163 7.56721C10.785 7.48179 10.6744 7.37479 10.5909 7.25233C10.5073 7.12987 10.4524 6.99435 10.4292 6.85349C10.4061 6.71263 10.4152 6.56921 10.456 6.4314C10.7435 5.4629 11.5793 4.83023 12.4443 4.46696C13.311 4.10223 14.3302 3.9484 15.2885 3.97512C16.241 4.00112 17.2577 4.20912 18.076 4.68146V4.68146Z" fill="black"/>
<path d="M17.5001 15.1667C17.5001 15.5498 17.3245 15.9172 17.0119 16.188C16.6994 16.4589 16.2754 16.6111 15.8334 16.6111C15.3914 16.6111 14.9675 16.4589 14.6549 16.188C14.3423 15.9172 14.1667 15.5498 14.1667 15.1667C14.1667 14.7836 14.3423 14.4162 14.6549 14.1453C14.9675 13.8744 15.3914 13.7222 15.8334 13.7222C16.2754 13.7222 16.6994 13.8744 17.0119 14.1453C17.3245 14.4162 17.5001 14.7836 17.5001 15.1667V15.1667Z" fill="black"/>
</svg>
