<svg width="30" height="26" viewBox="0 0 30 26" fill="none" xmlns="http://www.w3.org/2000/svg">
<path d="M26.8345 9.84019C27.2906 8.77256 27.4223 7.7545 27.0947 6.84084C26.9437 6.85263 26.7872 6.85872 26.6269 6.85872C21.8259 6.85872 13.3406 1.62744 12.6984 0.8125C10.0523 4.15309 4.50607 6.72141 1.99919 9.60172C0.984819 10.7673 0.477632 11.6346 1.48685 12.9679L12.0567 24.7382C12.5334 25.2976 13.4676 25.3431 14.1328 24.8272C14.1328 24.8272 22.8009 15.1872 29.0629 12.2046C28.5923 11.4079 27.809 10.6129 26.8345 9.84019V9.84019ZM11.8725 22.2438L11.8284 22.2702L11.7886 22.3003C11.627 22.4259 11.4835 22.5679 11.3611 22.7232L2.20263 12.5251C1.5431 11.6407 1.73013 11.1751 2.70091 10.0604C3.80201 8.79572 5.56169 7.56803 7.42498 6.26844C9.36185 4.91725 11.3569 3.52625 12.8222 1.9435C15.2409 3.66844 22.0064 7.47703 26.384 7.61637C26.909 12.0839 16.2206 19.6154 11.8725 22.2438" fill="black"/>
<path d="M9.3717 5.75169L21.1865 13.7751L21.6075 13.4485L9.6792 5.51282L9.3717 5.75169Z" fill="black"/>
<path d="M13.222 10.0226L8.3864 6.51584C8.3864 6.51584 6.70359 7.44696 4.66547 9.48918L8.95547 13.3331L13.222 10.0226" fill="black"/>
<path d="M2.62781 11.3994L11.7534 21.0929L13.4386 19.786L3.70921 10.1453C3.70921 10.1453 2.86125 10.543 2.62781 11.3994Z" fill="black"/>
<path d="M12.8531 11.9551L18.1542 16.1273L19.8385 14.8204L14.3189 10.818L12.8531 11.9551Z" fill="black"/>
<path d="M9.92157 14.2297L14.7858 18.7407L16.4695 17.4342L11.3874 13.0926L9.92157 14.2297Z" fill="black"/>
<path d="M13.0579 4.36962L12.3431 6.10919L12.7912 6.39194L15.067 4.62597L14.6217 4.38303L13.0537 5.59975L13.747 3.90406L13.282 3.64975L11.1131 5.33244L11.5017 5.57741L13.0579 4.36962Z" fill="black"/>
<path d="M15.0056 7.79146L15.4397 7.45387L14.1155 6.63812L14.7159 6.17256L15.892 6.87049L16.3097 6.5459L15.1205 5.85771L15.6164 5.4734L16.9331 6.21156L17.3606 5.88046L15.54 4.88434L13.2347 6.67306L15.0056 7.79146Z" fill="black"/>
<path d="M16.4161 8.68198L18.2157 7.73745L18.8049 7.41408L18.4139 7.85201L17.2561 9.21336L17.8153 9.56639L21.2785 8.02304L20.6213 7.66351L18.7224 8.6052L18.2377 8.85951L18.563 8.48861L19.6885 7.15326L19.0566 6.80795L17.3011 7.75086L16.8347 8.00639L17.1558 7.65254L18.2189 6.3497L17.6264 6.02551L15.9103 8.36267L16.4161 8.68198Z" fill="black"/>
<path d="M22.9251 8.81766C22.499 8.58569 22.1011 8.47479 21.7289 8.48129C21.3595 8.48819 21.0567 8.58447 20.8181 8.76972C20.5561 8.97285 20.4679 9.18369 20.5542 9.40226C20.6048 9.53347 20.7661 9.72319 21.0412 9.97426L21.3258 10.2334C21.4954 10.3862 21.6047 10.5113 21.6525 10.6072C21.6994 10.7043 21.6764 10.7892 21.584 10.8607C21.4261 10.983 21.2203 11.0061 20.9676 10.9314C20.8105 10.8797 20.6625 10.8093 20.5279 10.7222C20.2608 10.5572 20.1309 10.3984 20.1342 10.2452C20.1361 10.1615 20.189 10.0657 20.2926 9.9576L19.6781 9.58629C19.4011 9.80119 19.2961 10.0409 19.3654 10.307C19.4353 10.5755 19.6729 10.8404 20.0854 11.1012C20.4965 11.3624 20.9058 11.5022 21.3079 11.5176C21.7144 11.5326 22.049 11.44 22.3069 11.2389C22.56 11.0431 22.65 10.8327 22.5778 10.6088C22.5319 10.4654 22.4029 10.2984 22.1948 10.1083L21.7284 9.68176C21.5508 9.52088 21.4448 9.40916 21.4087 9.34538C21.3525 9.24829 21.3726 9.16257 21.4697 9.08782C21.5751 9.00576 21.7101 8.97244 21.8751 8.98666C22.0425 9.00088 22.2169 9.05897 22.3992 9.16054C22.5647 9.25316 22.6814 9.34904 22.7465 9.44816C22.8473 9.59766 22.8192 9.74188 22.6645 9.87879L23.3568 10.2741C23.6447 10.0336 23.7347 9.77885 23.6273 9.51113C23.5223 9.24585 23.2875 9.01429 22.9251 8.81766" fill="black"/>
</svg>
