<svg width="26" height="23" viewBox="0 0 26 23" fill="none" xmlns="http://www.w3.org/2000/svg">
<path d="M21.3366 3.28571L18.2059 5.92524V6.12238L21.3366 8.7619H26V10.9524H20.2714L18.2059 9.21095V12.0476H16.9069C16.2179 12.0476 15.5571 11.8168 15.0699 11.406C14.5826 10.9952 14.3089 10.4381 14.3089 9.85714V7.11905H10.23C10.1131 7.52429 9.91826 7.90762 9.65846 8.26905L17.1408 19.7143H23.402C24.091 19.7143 24.7518 19.9451 25.2391 20.3559C25.7263 20.7667 26 21.3238 26 21.9048V23H0.0198033V21.9048C0.0198033 21.3238 0.293522 20.7667 0.780746 20.3559C1.26797 19.9451 1.92879 19.7143 2.61782 19.7143H11.2043L5.11192 10.4048C3.97439 10.3885 2.87451 10.0584 1.98066 9.46503C1.08681 8.87161 0.448232 8.04757 0.162694 7.11905C-0.00695326 6.56098 -0.0443835 5.98017 0.052546 5.40989C0.149475 4.83961 0.378861 4.29104 0.727571 3.7956C1.07628 3.30016 1.53747 2.86757 2.08472 2.52261C2.63198 2.17764 3.25457 1.92707 3.91683 1.78524C6.68372 1.18286 9.51556 2.58476 10.23 4.92857H14.3089V2.19048C14.3089 1.60953 14.5826 1.05237 15.0699 0.641576C15.5571 0.230782 16.2179 0 16.9069 0H18.2059V2.83667L20.2714 1.09524H26V3.28571H21.3366ZM5.21584 3.83333C4.5268 3.83333 3.86599 4.06411 3.37877 4.47491C2.89154 4.8857 2.61782 5.44286 2.61782 6.02381C2.61782 6.60476 2.89154 7.16192 3.37877 7.57271C3.86599 7.9835 4.5268 8.21429 5.21584 8.21429C5.90488 8.21429 6.5657 7.9835 7.05292 7.57271C7.54014 7.16192 7.81386 6.60476 7.81386 6.02381C7.81386 5.44286 7.54014 4.8857 7.05292 4.47491C6.5657 4.06411 5.90488 3.83333 5.21584 3.83333V3.83333Z" fill="black" fill-opacity="0.92"/>
</svg>
